<?xml version="1.0" standalone="no"?>
<!DOCTYPE svg PUBLIC "-//W3C//DTD SVG 20010904//EN"
 "http://www.w3.org/TR/2001/REC-SVG-20010904/DTD/svg10.dtd">
<svg version="1.0" xmlns="http://www.w3.org/2000/svg"
 width="640.000000pt" height="640.000000pt" viewBox="0 0 640.000000 640.000000"
 preserveAspectRatio="xMidYMid meet">
<metadata>
Created by potrace 1.14, written by Peter Selinger 2001-2017
</metadata>
<g transform="translate(0.000000,640.000000) scale(0.100000,-0.100000)"
fill="#000000" stroke="none">
<path d="M1188 5643 l-3 -758 -175 0 -175 0 -2 -657 -2 -657 142 0 c78 0 159
0 180 0 l37 -1 0 -1785 c0 -1778 0 -1785 20 -1785 20 0 20 7 20 1785 0 1421 3
1785 13 1786 6 0 87 1 179 1 l167 0 -2 657 -2 656 -175 0 -175 0 -3 758 c-2
748 -2 757 -22 757 -20 0 -20 -9 -22 -757z"/>
<path d="M1499 6356 c0 -23 -1 -123 -2 -224 l-2 -182 25 0 c14 -1 446 -2 960
-4 514 -2 951 -6 970 -10 19 -3 55 -8 80 -11 71 -8 166 -25 277 -50 12 -3 67
-21 122 -39 256 -87 439 -216 588 -414 39 -53 119 -202 143 -266 31 -85 68
-255 76 -351 6 -74 6 -299 0 -337 -3 -18 -8 -49 -11 -68 -5 -37 -7 -49 -24
-120 -70 -305 -295 -591 -576 -733 -188 -95 -406 -156 -660 -183 -33 -4 -73
-8 -90 -10 -44 -6 -594 -13 -1273 -18 -327 -2 -596 -7 -599 -10 -5 -4 -8 -369
-4 -423 1 -9 222 -12 959 -12 526 -1 986 -3 1021 -6 320 -24 592 -117 795
-270 243 -183 392 -435 441 -745 3 -19 8 -48 12 -65 3 -16 6 -237 8 -490 1
-253 5 -482 8 -510 4 -27 9 -72 12 -100 32 -298 121 -543 243 -673 l30 -32
269 2 268 3 3 48 c3 45 0 52 -40 95 -79 85 -136 181 -176 297 -26 77 -58 215
-67 285 -3 30 -9 73 -12 95 -3 22 -7 247 -9 500 -1 253 -5 485 -8 516 -24 276
-110 538 -241 739 -160 245 -431 427 -799 535 l-58 17 103 41 c469 190 815
555 947 1002 26 89 37 140 57 280 8 51 8 324 0 390 -3 28 -8 73 -11 100 -20
180 -84 390 -171 560 -174 342 -495 603 -912 744 -198 67 -381 106 -591 127
-30 3 -66 8 -80 11 -14 4 -469 7 -1012 8 l-988 2 -1 -41z"/>
</g>
</svg>
